<svg width="138" height="48" viewBox="0 0 138 48" fill="none" xmlns="http://www.w3.org/2000/svg">
<path d="M24 0C10.746 0 0 10.746 0 24C0 37.254 10.746 48 24 48C37.254 48 48 37.254 48 24C48 10.746 37.254 0 24 0ZM22 20.398L14.72 24L22 27.592V32L10 26.13V21.868L22 16V20.398ZM38 26.13L26 32V27.592L33.28 24L26 20.398V16L38 21.87V26.13Z" fill="#3DCFD3"/>
<path d="M56.4756 36V14.6719H62.4961C64.3516 14.6719 65.9922 15.082 67.418 15.9023C68.8438 16.7227 69.9424 17.8896 70.7139 19.4033C71.4951 20.917 71.8906 22.6553 71.9004 24.6182V25.9805C71.9004 27.9922 71.5098 29.7549 70.7285 31.2686C69.957 32.7822 68.8486 33.9443 67.4033 34.7549C65.9678 35.5654 64.293 35.9805 62.3789 36H56.4756ZM59.2881 16.9863V33.7002H62.2471C64.415 33.7002 66.0996 33.0264 67.3008 31.6787C68.5117 30.3311 69.1172 28.4121 69.1172 25.9219V24.6768C69.1172 22.2549 68.5459 20.375 67.4033 19.0371C66.2705 17.6895 64.6592 17.0059 62.5693 16.9863H59.2881ZM82.3154 36.293C80.167 36.293 78.4189 35.5898 77.0713 34.1836C75.7236 32.7676 75.0498 30.8779 75.0498 28.5146V28.0166C75.0498 26.4443 75.3477 25.043 75.9434 23.8125C76.5488 22.5723 77.3887 21.6055 78.4629 20.9121C79.5469 20.209 80.7188 19.8574 81.9785 19.8574C84.0391 19.8574 85.6406 20.5361 86.7832 21.8936C87.9258 23.251 88.4971 25.1943 88.4971 27.7236V28.8516H77.7598C77.7988 30.4141 78.2529 31.6787 79.1221 32.6455C80.001 33.6025 81.1143 34.0811 82.4619 34.0811C83.4189 34.0811 84.2295 33.8857 84.8936 33.4951C85.5576 33.1045 86.1387 32.5869 86.6367 31.9424L88.292 33.2314C86.9639 35.2725 84.9717 36.293 82.3154 36.293ZM81.9785 22.084C80.8848 22.084 79.9668 22.4844 79.2246 23.2852C78.4824 24.0762 78.0234 25.1895 77.8477 26.625H85.7871V26.4199C85.709 25.043 85.3379 23.9785 84.6738 23.2266C84.0098 22.4648 83.1113 22.084 81.9785 22.084ZM100.875 31.7959C100.875 31.0635 100.597 30.4971 100.04 30.0967C99.4932 29.6865 98.5312 29.335 97.1543 29.042C95.7871 28.749 94.6982 28.3975 93.8877 27.9873C93.0869 27.5771 92.4912 27.0889 92.1006 26.5225C91.7197 25.9561 91.5293 25.2822 91.5293 24.501C91.5293 23.2021 92.0762 22.1035 93.1699 21.2051C94.2734 20.3066 95.6797 19.8574 97.3887 19.8574C99.1855 19.8574 100.641 20.3213 101.754 21.249C102.877 22.1768 103.438 23.3633 103.438 24.8086H100.714C100.714 24.0664 100.396 23.4268 99.7617 22.8896C99.1367 22.3525 98.3457 22.084 97.3887 22.084C96.4023 22.084 95.6309 22.2988 95.0742 22.7285C94.5176 23.1582 94.2393 23.7197 94.2393 24.4131C94.2393 25.0674 94.498 25.5605 95.0156 25.8926C95.5332 26.2246 96.4658 26.542 97.8135 26.8447C99.1709 27.1475 100.27 27.5088 101.109 27.9287C101.949 28.3486 102.569 28.8564 102.97 29.4521C103.38 30.0381 103.585 30.7559 103.585 31.6055C103.585 33.0215 103.019 34.1592 101.886 35.0186C100.753 35.8682 99.2832 36.293 97.4766 36.293C96.207 36.293 95.084 36.0684 94.1074 35.6191C93.1309 35.1699 92.3643 34.5449 91.8076 33.7441C91.2607 32.9336 90.9873 32.0596 90.9873 31.1221H93.6973C93.7461 32.0303 94.1074 32.7529 94.7812 33.29C95.4648 33.8174 96.3633 34.0811 97.4766 34.0811C98.502 34.0811 99.3223 33.876 99.9375 33.4658C100.562 33.0459 100.875 32.4893 100.875 31.7959ZM113.473 34.0811C114.439 34.0811 115.284 33.7881 116.007 33.2021C116.729 32.6162 117.13 31.8838 117.208 31.0049H119.771C119.723 31.9131 119.41 32.7773 118.834 33.5977C118.258 34.418 117.486 35.0723 116.52 35.5605C115.562 36.0488 114.547 36.293 113.473 36.293C111.314 36.293 109.596 35.5752 108.316 34.1396C107.047 32.6943 106.412 30.7217 106.412 28.2217V27.7676C106.412 26.2246 106.695 24.8525 107.262 23.6514C107.828 22.4502 108.639 21.5176 109.693 20.8535C110.758 20.1895 112.013 19.8574 113.458 19.8574C115.235 19.8574 116.71 20.3896 117.882 21.4541C119.063 22.5186 119.693 23.9004 119.771 25.5996H117.208C117.13 24.5742 116.739 23.7344 116.036 23.0801C115.343 22.416 114.483 22.084 113.458 22.084C112.081 22.084 111.012 22.582 110.25 23.5781C109.498 24.5645 109.122 25.9951 109.122 27.8701V28.3828C109.122 30.209 109.498 31.6152 110.25 32.6016C111.002 33.5879 112.076 34.0811 113.473 34.0811ZM122.101 27.9287C122.101 26.376 122.403 24.9795 123.009 23.7393C123.624 22.499 124.474 21.542 125.558 20.8682C126.651 20.1943 127.896 19.8574 129.293 19.8574C131.451 19.8574 133.194 20.6045 134.522 22.0986C135.86 23.5928 136.529 25.5801 136.529 28.0605V28.251C136.529 29.7939 136.231 31.1807 135.636 32.4111C135.05 33.6318 134.205 34.584 133.102 35.2676C132.008 35.9512 130.748 36.293 129.322 36.293C127.174 36.293 125.431 35.5459 124.093 34.0518C122.765 32.5576 122.101 30.5801 122.101 28.1191V27.9287ZM124.825 28.251C124.825 30.0088 125.23 31.4199 126.041 32.4844C126.861 33.5488 127.955 34.0811 129.322 34.0811C130.699 34.0811 131.793 33.5439 132.604 32.4697C133.414 31.3857 133.819 29.8721 133.819 27.9287C133.819 26.1904 133.404 24.7842 132.574 23.71C131.754 22.626 130.66 22.084 129.293 22.084C127.955 22.084 126.876 22.6162 126.056 23.6807C125.235 24.7451 124.825 26.2686 124.825 28.251Z" fill="#FBFAFA"/>
</svg>
