<svg width="142" height="56" viewBox="0 0 142 56" fill="none" xmlns="http://www.w3.org/2000/svg">
<g filter="url(#filter0_d)">
<path d="M28 0C14.746 0 4 10.746 4 24C4 37.254 14.746 48 28 48C41.254 48 52 37.254 52 24C52 10.746 41.254 0 28 0ZM26 20.398L18.72 24L26 27.592V32L14 26.13V21.868L26 16V20.398ZM42 26.13L30 32V27.592L37.28 24L30 20.398V16L42 21.87V26.13Z" fill="url(#paint0_linear)"/>
</g>
<path d="M60.4756 36V14.6719H66.4961C68.3516 14.6719 69.9922 15.082 71.418 15.9023C72.8438 16.7227 73.9424 17.8896 74.7139 19.4033C75.4951 20.917 75.8906 22.6553 75.9004 24.6182V25.9805C75.9004 27.9922 75.5098 29.7549 74.7285 31.2686C73.957 32.7822 72.8486 33.9443 71.4033 34.7549C69.9678 35.5654 68.293 35.9805 66.3789 36H60.4756ZM63.2881 16.9863V33.7002H66.2471C68.415 33.7002 70.0996 33.0264 71.3008 31.6787C72.5117 30.3311 73.1172 28.4121 73.1172 25.9219V24.6768C73.1172 22.2549 72.5459 20.375 71.4033 19.0371C70.2705 17.6895 68.6592 17.0059 66.5693 16.9863H63.2881ZM86.3154 36.293C84.167 36.293 82.4189 35.5898 81.0713 34.1836C79.7236 32.7676 79.0498 30.8779 79.0498 28.5146V28.0166C79.0498 26.4443 79.3477 25.043 79.9434 23.8125C80.5488 22.5723 81.3887 21.6055 82.4629 20.9121C83.5469 20.209 84.7188 19.8574 85.9785 19.8574C88.0391 19.8574 89.6406 20.5361 90.7832 21.8936C91.9258 23.251 92.4971 25.1943 92.4971 27.7236V28.8516H81.7598C81.7988 30.4141 82.2529 31.6787 83.1221 32.6455C84.001 33.6025 85.1143 34.0811 86.4619 34.0811C87.4189 34.0811 88.2295 33.8857 88.8936 33.4951C89.5576 33.1045 90.1387 32.5869 90.6367 31.9424L92.292 33.2314C90.9639 35.2725 88.9717 36.293 86.3154 36.293ZM85.9785 22.084C84.8848 22.084 83.9668 22.4844 83.2246 23.2852C82.4824 24.0762 82.0234 25.1895 81.8477 26.625H89.7871V26.4199C89.709 25.043 89.3379 23.9785 88.6738 23.2266C88.0098 22.4648 87.1113 22.084 85.9785 22.084ZM104.875 31.7959C104.875 31.0635 104.597 30.4971 104.04 30.0967C103.493 29.6865 102.531 29.335 101.154 29.042C99.7871 28.749 98.6982 28.3975 97.8877 27.9873C97.0869 27.5771 96.4912 27.0889 96.1006 26.5225C95.7197 25.9561 95.5293 25.2822 95.5293 24.501C95.5293 23.2021 96.0762 22.1035 97.1699 21.2051C98.2734 20.3066 99.6797 19.8574 101.389 19.8574C103.186 19.8574 104.641 20.3213 105.754 21.249C106.877 22.1768 107.438 23.3633 107.438 24.8086H104.714C104.714 24.0664 104.396 23.4268 103.762 22.8896C103.137 22.3525 102.346 22.084 101.389 22.084C100.402 22.084 99.6309 22.2988 99.0742 22.7285C98.5176 23.1582 98.2393 23.7197 98.2393 24.4131C98.2393 25.0674 98.498 25.5605 99.0156 25.8926C99.5332 26.2246 100.466 26.542 101.813 26.8447C103.171 27.1475 104.27 27.5088 105.109 27.9287C105.949 28.3486 106.569 28.8564 106.97 29.4521C107.38 30.0381 107.585 30.7559 107.585 31.6055C107.585 33.0215 107.019 34.1592 105.886 35.0186C104.753 35.8682 103.283 36.293 101.477 36.293C100.207 36.293 99.084 36.0684 98.1074 35.6191C97.1309 35.1699 96.3643 34.5449 95.8076 33.7441C95.2607 32.9336 94.9873 32.0596 94.9873 31.1221H97.6973C97.7461 32.0303 98.1074 32.7529 98.7812 33.29C99.4648 33.8174 100.363 34.0811 101.477 34.0811C102.502 34.0811 103.322 33.876 103.938 33.4658C104.562 33.0459 104.875 32.4893 104.875 31.7959ZM117.473 34.0811C118.439 34.0811 119.284 33.7881 120.007 33.2021C120.729 32.6162 121.13 31.8838 121.208 31.0049H123.771C123.723 31.9131 123.41 32.7773 122.834 33.5977C122.258 34.418 121.486 35.0723 120.52 35.5605C119.562 36.0488 118.547 36.293 117.473 36.293C115.314 36.293 113.596 35.5752 112.316 34.1396C111.047 32.6943 110.412 30.7217 110.412 28.2217V27.7676C110.412 26.2246 110.695 24.8525 111.262 23.6514C111.828 22.4502 112.639 21.5176 113.693 20.8535C114.758 20.1895 116.013 19.8574 117.458 19.8574C119.235 19.8574 120.71 20.3896 121.882 21.4541C123.063 22.5186 123.693 23.9004 123.771 25.5996H121.208C121.13 24.5742 120.739 23.7344 120.036 23.0801C119.343 22.416 118.483 22.084 117.458 22.084C116.081 22.084 115.012 22.582 114.25 23.5781C113.498 24.5645 113.122 25.9951 113.122 27.8701V28.3828C113.122 30.209 113.498 31.6152 114.25 32.6016C115.002 33.5879 116.076 34.0811 117.473 34.0811ZM126.101 27.9287C126.101 26.376 126.403 24.9795 127.009 23.7393C127.624 22.499 128.474 21.542 129.558 20.8682C130.651 20.1943 131.896 19.8574 133.293 19.8574C135.451 19.8574 137.194 20.6045 138.522 22.0986C139.86 23.5928 140.529 25.5801 140.529 28.0605V28.251C140.529 29.7939 140.231 31.1807 139.636 32.4111C139.05 33.6318 138.205 34.584 137.102 35.2676C136.008 35.9512 134.748 36.293 133.322 36.293C131.174 36.293 129.431 35.5459 128.093 34.0518C126.765 32.5576 126.101 30.5801 126.101 28.1191V27.9287ZM128.825 28.251C128.825 30.0088 129.23 31.4199 130.041 32.4844C130.861 33.5488 131.955 34.0811 133.322 34.0811C134.699 34.0811 135.793 33.5439 136.604 32.4697C137.414 31.3857 137.819 29.8721 137.819 27.9287C137.819 26.1904 137.404 24.7842 136.574 23.71C135.754 22.626 134.66 22.084 133.293 22.084C131.955 22.084 130.876 22.6162 130.056 23.6807C129.235 24.7451 128.825 26.2686 128.825 28.251Z" fill="#FBFAFA"/>
<defs>
<filter id="filter0_d" x="0" y="0" width="56" height="56" filterUnits="userSpaceOnUse" color-interpolation-filters="sRGB">
<feFlood flood-opacity="0" result="BackgroundImageFix"/>
<feColorMatrix in="SourceAlpha" type="matrix" values="0 0 0 0 0 0 0 0 0 0 0 0 0 0 0 0 0 0 127 0"/>
<feOffset dy="4"/>
<feGaussianBlur stdDeviation="2"/>
<feColorMatrix type="matrix" values="0 0 0 0 0 0 0 0 0 0 0 0 0 0 0 0 0 0 0.25 0"/>
<feBlend mode="normal" in2="BackgroundImageFix" result="effect1_dropShadow"/>
<feBlend mode="normal" in="SourceGraphic" in2="effect1_dropShadow" result="shape"/>
</filter>
<linearGradient id="paint0_linear" x1="28" y1="0" x2="28" y2="48" gradientUnits="userSpaceOnUse">
<stop stop-color="#FFE838"/>
<stop offset="0.28125" stop-color="#FEBF5E" stop-opacity="0.71875"/>
<stop offset="0.40625" stop-color="#FEAD6F" stop-opacity="0.59375"/>
<stop offset="0.458333" stop-color="#FEA676" stop-opacity="0.541667"/>
<stop offset="0.53125" stop-color="#FE9B80" stop-opacity="0.46875"/>
<stop offset="0.609375" stop-color="#FE908A" stop-opacity="0.390625"/>
<stop offset="0.609475" stop-color="#FE908A" stop-opacity="0.390625"/>
<stop offset="0.6875" stop-color="#FE8495" stop-opacity="0.3125"/>
<stop offset="0.739583" stop-color="#FE7D9C" stop-opacity="0.260417"/>
<stop offset="1" stop-color="#FD57BF" stop-opacity="0"/>
</linearGradient>
</defs>
</svg>
